<svg width="50" height="50" viewBox="0 0 50 50" fill="none" xmlns="http://www.w3.org/2000/svg">
<path d="M14.5833 9.37502C11.1316 9.37502 8.33333 12.1733 8.33333 15.625C8.33333 16.8097 8.66296 17.9175 9.2355 18.8615C6.34848 19.4137 4.16667 21.9521 4.16667 25C4.16667 28.0479 6.34848 30.5863 9.2355 31.1386M14.5833 9.37502C14.5833 6.49854 16.9152 4.16669 19.7917 4.16669C22.6681 4.16669 25 6.49854 25 9.37502V40.625C25 43.5015 22.6681 45.8334 19.7917 45.8334C16.9152 45.8334 14.5833 43.5015 14.5833 40.625C11.1316 40.625 8.33333 37.8269 8.33333 34.375C8.33333 33.1902 8.66296 32.0825 9.2355 31.1386M14.5833 9.37502C14.5833 11.079 15.4016 12.5919 16.6667 13.5421M9.2355 31.1386C9.97808 29.9142 11.1293 28.965 12.5 28.4806" stroke="white" stroke-width="2" stroke-linecap="round" stroke-linejoin="round"/>
<path d="M35.4167 40.6248C38.8685 40.6248 41.6667 37.8265 41.6667 34.3748C41.6667 33.19 41.3371 32.0823 40.7646 31.1384C43.6515 30.5861 45.8333 28.0477 45.8333 24.9998C45.8333 21.9519 43.6515 19.4134 40.7646 18.8612M35.4167 40.6248C35.4167 43.5013 33.0848 45.8332 30.2083 45.8332C27.3319 45.8332 25 43.5013 25 40.6248V9.37478C25 6.4983 27.3319 4.16644 30.2083 4.16644C33.0848 4.16644 35.4167 6.4983 35.4167 9.37478C38.8685 9.37478 41.6667 12.173 41.6667 15.6248C41.6667 16.8095 41.3371 17.9172 40.7646 18.8612M35.4167 40.6248C35.4167 38.9209 34.5983 37.4079 33.3333 36.4577M40.7646 18.8612C40.0219 20.0856 38.8706 21.0346 37.5 21.5192" stroke="white" stroke-width="2" stroke-linecap="round" stroke-linejoin="round"/>
</svg>
