<svg width="70" height="70" viewBox="0 0 70 70" fill="none" xmlns="http://www.w3.org/2000/svg">
<path d="M20.1662 17.4878C27.1589 9.71817 30.6553 5.83331 35 5.83331C39.3447 5.83331 42.8412 9.71817 49.8339 17.4878L50.7608 18.518C57.7535 26.2877 61.25 30.1726 61.25 35C61.25 39.8274 57.7535 43.7124 50.7608 51.4821L49.8339 52.5122C42.8412 60.2819 39.3447 64.1666 35 64.1666C30.6553 64.1666 27.1589 60.2819 20.1662 52.5122L19.2391 51.4821C12.2464 43.7124 8.75 39.8274 8.75 35C8.75 30.1726 12.2464 26.2877 19.2391 18.518L20.1662 17.4878Z" fill="white" stroke="white" stroke-width="2" stroke-linejoin="round"/>
</svg>
