<svg width="70" height="70" viewBox="0 0 70 70" fill="none" xmlns="http://www.w3.org/2000/svg">
<path d="M25.9067 9.71149C30.3444 7.12604 32.5634 5.83331 35 5.83331C37.4366 5.83331 39.6556 7.12604 44.0933 9.71149L52.1567 14.4092C56.5944 16.9947 58.8134 18.2874 60.0317 20.4166C61.25 22.5459 61.25 25.1313 61.25 30.3024V39.6976C61.25 44.8685 61.25 47.4541 60.0317 49.5833C58.8134 51.7125 56.5944 53.0054 52.1567 55.5908L44.0933 60.2884C39.6556 62.874 37.4366 64.1666 35 64.1666C32.5634 64.1666 30.3444 62.874 25.9067 60.2884L17.8433 55.5908C13.4054 53.0054 11.1865 51.7125 9.96826 49.5833C8.75 47.4541 8.75 44.8685 8.75 39.6976V30.3024C8.75 25.1313 8.75 22.5459 9.96826 20.4166C11.1865 18.2874 13.4054 16.9947 17.8433 14.4092L25.9067 9.71149Z" fill="white" stroke="white" stroke-width="2"/>
</svg>
