<svg width="70" height="70" viewBox="0 0 70 70" fill="none" xmlns="http://www.w3.org/2000/svg">
<path d="M37.6029 8.19531L62.6722 27.9868C63.616 28.7319 64.1667 29.8681 64.1667 31.0707C64.1667 33.241 62.4077 35 60.2374 35H58.3334V45.2083C58.3334 53.4578 58.3334 57.5826 55.7705 60.1455C53.2076 62.7083 49.0829 62.7083 40.8334 62.7083H29.1667C20.9171 62.7083 16.7923 62.7083 14.2295 60.1455C11.6667 57.5826 11.6667 53.4578 11.6667 45.2083V35H9.76259C7.59256 35 5.83337 33.241 5.83337 31.0707C5.83337 29.8681 6.38404 28.7319 7.32787 27.9868L32.3972 8.19531C33.1383 7.61002 34.0553 7.29166 35 7.29166C35.9447 7.29166 36.8617 7.61002 37.6029 8.19531Z" stroke="white" stroke-width="3" stroke-linecap="round" stroke-linejoin="round"/>
<path d="M42.2917 62.7083V49.5833C42.2917 46.8574 42.2917 45.4944 41.7055 44.4792C41.3216 43.8142 40.7692 43.2617 40.1042 42.8779C39.0889 42.2917 37.726 42.2917 35 42.2917C32.2741 42.2917 30.9112 42.2917 29.8959 42.8779C29.2309 43.2617 28.6785 43.8142 28.2945 44.4792C27.7084 45.4944 27.7084 46.8574 27.7084 49.5833V62.7083" stroke="white" stroke-width="3" stroke-linecap="round" stroke-linejoin="round"/>
</svg>
