<svg width="45" height="45" viewBox="0 0 45 45" fill="none" xmlns="http://www.w3.org/2000/svg">
<path d="M11.4176 28.1235C10.7081 26.5286 10.3125 24.7543 10.3125 22.8846C10.3125 15.9404 15.769 10.311 22.5 10.311C29.2311 10.311 34.6875 15.9404 34.6875 22.8846C34.6875 24.7543 34.2919 26.5286 33.5824 28.1235" stroke="white" stroke-width="2" stroke-linecap="round"/>
<path d="M22.5 3.74854V5.62353" stroke="white" stroke-width="2" stroke-linecap="round" stroke-linejoin="round"/>
<path d="M41.25 22.4985H39.375" stroke="white" stroke-width="2" stroke-linecap="round" stroke-linejoin="round"/>
<path d="M5.625 22.4985H3.75" stroke="white" stroke-width="2" stroke-linecap="round" stroke-linejoin="round"/>
<path d="M35.757 9.23975L34.4312 10.5656" stroke="white" stroke-width="2" stroke-linecap="round" stroke-linejoin="round"/>
<path d="M10.569 10.5675L9.24316 9.2417" stroke="white" stroke-width="2" stroke-linecap="round" stroke-linejoin="round"/>
<path d="M27.2194 36.1979C29.1139 35.5852 29.8736 33.8512 30.0874 32.1071C30.1511 31.586 29.7225 31.1538 29.1975 31.1538L15.8941 31.1542C15.3511 31.1542 14.915 31.6151 14.9799 32.1541C15.1892 33.8949 15.7176 35.1665 17.7252 36.1979M27.2194 36.1979C27.2194 36.1979 18.0557 36.1979 17.7252 36.1979M27.2194 36.1979C26.9916 39.8448 25.9384 41.2891 22.5128 41.2486C18.8486 41.3163 18.0057 39.5311 17.7252 36.1979" stroke="white" stroke-width="2" stroke-linecap="round" stroke-linejoin="round"/>
</svg>
