<svg width="45" height="45" viewBox="0 0 45 45" fill="none" xmlns="http://www.w3.org/2000/svg">
<path d="M10.6084 20.6291L7.85149 26.8322C4.37324 34.6582 2.6341 38.5712 4.53222 40.4694C6.43032 42.3675 10.3433 40.6284 18.1694 37.1501L24.3725 34.3931C29.0927 32.2954 31.4527 31.2463 31.8283 29.2237C32.2039 27.2012 30.3776 25.3749 26.7253 21.7226L23.279 18.2764C19.6265 14.6239 17.8004 12.7977 15.7778 13.1733C13.7552 13.5488 12.7063 15.9089 10.6084 20.6291Z" stroke="white" stroke-width="2" stroke-linecap="round" stroke-linejoin="round"/>
<path d="M12.1875 19.6875L25.3125 32.8125M8.4375 29.0625L15.9375 36.5625" stroke="white" stroke-width="2" stroke-linecap="round" stroke-linejoin="round"/>
<path d="M30 15L35.625 9.375" stroke="white" stroke-width="2" stroke-linecap="round" stroke-linejoin="round"/>
<path d="M26.6199 3.75C27.3681 5.00001 27.9668 8.25 24.375 11.25" stroke="white" stroke-width="2" stroke-linecap="round" stroke-linejoin="round"/>
<path d="M41.25 18.3801C39.9999 17.6318 36.75 17.0332 33.75 20.625" stroke="white" stroke-width="2" stroke-linecap="round" stroke-linejoin="round"/>
<path d="M33.7517 3.75V3.7875" stroke="white" stroke-width="2" stroke-linecap="round" stroke-linejoin="round"/>
<path d="M41.2517 11.25V11.2875" stroke="white" stroke-width="2" stroke-linecap="round" stroke-linejoin="round"/>
<path d="M39.3767 24.375V24.4125" stroke="white" stroke-width="2" stroke-linecap="round" stroke-linejoin="round"/>
<path d="M20.6267 5.625V5.6625" stroke="white" stroke-width="2" stroke-linecap="round" stroke-linejoin="round"/>
</svg>
