<svg width="150" height="150" viewBox="0 0 150 150" fill="none" xmlns="http://www.w3.org/2000/svg">
<path d="M75 137.5C109.518 137.5 137.5 109.518 137.5 75C137.5 40.4822 109.518 12.5 75 12.5C40.4822 12.5 12.5 40.4822 12.5 75C12.5 109.518 40.4822 137.5 75 137.5Z" stroke="white" stroke-width="3"/>
<path d="M99.6581 77.4675C98.5537 81.3844 93.3331 84.1525 82.8931 89.6887C72.8 95.04 67.7538 97.7162 63.6869 96.6406C62.0056 96.1956 60.4737 95.3512 59.2382 94.1881C56.25 91.3737 56.25 85.9156 56.25 75C56.25 64.0844 56.25 58.6261 59.2382 55.8122C60.4737 54.6488 62.0056 53.8042 63.6869 53.3596C67.7538 52.284 72.8 54.9598 82.8931 60.3114C93.3331 65.8475 98.5537 68.6156 99.6581 72.5325C100.114 74.1494 100.114 75.8506 99.6581 77.4675Z" fill="white" stroke="white" stroke-width="3" stroke-linejoin="round"/>
</svg>
