<svg width="50" height="50" viewBox="0 0 50 50" fill="none" xmlns="http://www.w3.org/2000/svg">
<path d="M45.8333 37.5C45.8333 40.4169 45.8333 41.8754 45.2656 42.9896C44.7663 43.9696 43.9696 44.7663 42.9896 45.2656C41.8754 45.8334 40.4169 45.8334 37.5 45.8334C34.5831 45.8334 33.1246 45.8334 32.0104 45.2656C31.0304 44.7663 30.2338 43.9696 29.7344 42.9896C29.1667 41.8754 29.1667 40.4169 29.1667 37.5C29.1667 34.5831 29.1667 33.1246 29.7344 32.0104C30.2338 31.0304 31.0304 30.2338 32.0104 29.7344C33.1246 29.1667 34.5831 29.1667 37.5 29.1667C40.4169 29.1667 41.8754 29.1667 42.9896 29.7344C43.9696 30.2338 44.7663 31.0304 45.2656 32.0104C45.8333 33.1246 45.8333 34.5831 45.8333 37.5Z" stroke="white" stroke-width="2"/>
<path d="M45.8333 20.8333C45.8333 23.7502 45.8333 25.2088 45.2656 26.3229C44.7663 27.3029 43.9696 28.0996 42.9896 28.599C41.8754 29.1667 40.4169 29.1667 37.5 29.1667C34.5831 29.1667 33.1246 29.1667 32.0104 28.599C31.0304 28.0996 30.2338 27.3029 29.7344 26.3229C29.1667 25.2088 29.1667 23.7502 29.1667 20.8333C29.1667 17.9164 29.1667 16.4579 29.7344 15.3438C30.2338 14.3638 31.0304 13.567 32.0104 13.0677C33.1246 12.5 34.5831 12.5 37.5 12.5C40.4169 12.5 41.8754 12.5 42.9896 13.0677C43.9696 13.567 44.7663 14.3638 45.2656 15.3438C45.8333 16.4579 45.8333 17.9164 45.8333 20.8333Z" stroke="white" stroke-width="2"/>
<path d="M29.1667 37.5C29.1667 40.4169 29.1667 41.8754 28.599 42.9896C28.0996 43.9696 27.3029 44.7663 26.3229 45.2656C25.2088 45.8334 23.7502 45.8334 20.8333 45.8334C17.9164 45.8334 16.4579 45.8334 15.3438 45.2656C14.3638 44.7663 13.567 43.9696 13.0677 42.9896C12.5 41.8754 12.5 40.4169 12.5 37.5C12.5 34.5831 12.5 33.1246 13.0677 32.0104C13.567 31.0304 14.3638 30.2338 15.3438 29.7344C16.4579 29.1667 17.9164 29.1667 20.8333 29.1667C23.7502 29.1667 25.2088 29.1667 26.3229 29.7344C27.3029 30.2338 28.0996 31.0304 28.599 32.0104C29.1667 33.1246 29.1667 34.5831 29.1667 37.5Z" stroke="white" stroke-width="2"/>
<path d="M20.8333 12.5C20.8333 15.417 20.8333 16.8754 20.2657 17.9895C19.7663 18.9696 18.9695 19.7663 17.9895 20.2657C16.8754 20.8334 15.4169 20.8334 12.5 20.8334C9.58307 20.8334 8.12459 20.8334 7.01046 20.2657C6.03046 19.7663 5.23369 18.9696 4.73434 17.9895C4.16667 16.8754 4.16667 15.417 4.16667 12.5C4.16667 9.58308 4.16667 8.1246 4.73434 7.01048C5.23369 6.03048 6.03046 5.23371 7.01046 4.73435C8.12459 4.16669 9.58307 4.16669 12.5 4.16669C15.4169 4.16669 16.8754 4.16669 17.9895 4.73435C18.9695 5.23371 19.7663 6.03048 20.2657 7.01048C20.8333 8.1246 20.8333 9.58308 20.8333 12.5Z" stroke="white" stroke-width="2"/>
</svg>
