<svg width="100" height="100" viewBox="0 0 100 100" fill="none" xmlns="http://www.w3.org/2000/svg">
<path d="M48.8281 96.875C54.0058 96.875 58.2031 92.6777 58.2031 87.5C58.2031 82.3223 54.0058 78.125 48.8281 78.125C43.6505 78.125 39.4531 82.3223 39.4531 87.5C39.4531 92.6777 43.6505 96.875 48.8281 96.875Z" fill="#CC3333"/>
<path d="M47.5781 95.5469C52.0223 95.5469 55.625 91.9442 55.625 87.5C55.625 83.0558 52.0223 79.4531 47.5781 79.4531C43.134 79.4531 39.5312 83.0558 39.5312 87.5C39.5312 91.9442 43.134 95.5469 47.5781 95.5469Z" fill="#F44336"/>
<path opacity="0.2" d="M43.0469 84.6875C43.9844 83.2812 46.0156 82.1094 48.125 81.7969C48.6719 81.7187 49.1406 81.7187 49.6094 81.875C49.9219 82.0312 50.2344 82.3437 50 82.6562C49.8437 82.9687 49.4531 83.0469 49.1406 83.125C47.1875 83.6719 45.3906 85 44.2969 86.5625C43.9062 87.1875 43.2031 88.8281 42.4219 88.4375C41.6406 87.8906 41.7969 86.4062 43.0469 84.6875Z" fill="white"/>
<path d="M36.0156 18.9844C34.375 20.5469 33.3594 22.4219 32.8906 24.7656C32.6562 26.25 31.3281 27.2656 29.8438 27.2656H35.2344C36.7187 27.2656 38.0469 26.25 38.2812 24.7656C38.6719 22.4219 39.7656 20.5469 41.4062 18.9844C43.0469 17.5 45.0781 16.5625 47.5 16.1719C46.6406 16.0156 45.7031 15.9375 44.7656 15.9375C41.1719 16.0156 38.2812 17.0312 36.0156 18.9844Z" fill="#CC3333"/>
<path d="M69.9219 9.53125C65.1562 5.23437 58.5937 3.125 50.1562 3.125C49.2187 3.125 48.3594 3.125 47.5 3.20312C54.6094 3.59375 60.3125 5.70312 64.5312 9.53125C69.2969 13.8281 71.6406 19.8438 71.6406 27.5C71.6406 34.375 68.4375 41.0938 62.1094 47.7344L54.4531 55.2344L54.2188 55.4688C51.9531 58.125 50.625 61.7188 50.1562 66.3281C50 67.8906 48.6719 69.1406 47.0312 69.1406H52.4219C53.9844 69.1406 55.3906 67.8906 55.5469 66.3281C55.9375 61.7188 57.3438 58.125 59.6094 55.4688L59.8437 55.2344L67.5 47.7344C73.9062 41.0938 77.0312 34.375 77.0312 27.5C76.9531 19.8438 74.6094 13.8281 69.9219 9.53125Z" fill="#CC3333"/>
<path d="M50.1562 66.4063C50.5469 61.7969 51.9531 58.2031 54.2187 55.5469L54.4531 55.3125L62.1094 47.8125C68.5156 41.1719 71.6406 34.4531 71.6406 27.5781C71.6406 19.9219 69.2969 13.9062 64.5312 9.60938C60.3125 5.78125 54.6875 3.67188 47.5 3.28125C40.5469 3.67188 34.8437 5.85937 30.3906 9.6875C26.25 13.2812 23.75 17.9687 23.0469 23.8281C22.8125 25.7031 24.2969 27.2656 26.1719 27.2656H29.9219C31.4062 27.2656 32.7344 26.25 32.9687 24.7656C33.3594 22.4219 34.4531 20.5469 36.0937 18.9844C38.2812 16.9531 41.25 15.9375 44.8437 15.9375C45.7812 15.9375 46.7187 16.0156 47.5781 16.1719C48.4375 16.0156 49.2969 15.9375 50.2344 15.9375C53.9844 15.9375 56.875 16.9531 58.8281 19.0625C60.7812 21.1719 61.7969 24.1406 61.7969 28.0469C61.7969 31.0156 60.9375 33.8281 59.2969 36.3281C58.2031 38.0469 55.625 40.8594 51.4844 44.8438C47.4219 48.8281 44.6094 52.5 43.2812 55.7813C42.1875 58.4375 41.4844 61.7969 41.3281 65.8594C41.25 67.6563 42.6562 69.1406 44.4531 69.1406H47.1875C48.5937 69.2188 50 67.9688 50.1562 66.4063Z" fill="#F44336"/>
<path opacity="0.2" d="M30.9375 12.4219C33.5937 9.14065 38.6719 6.7969 43.75 6.4844C45 6.40627 46.25 6.4844 47.2656 7.03127C48.0469 7.4219 48.5938 8.28127 48.0469 9.06252C47.5781 9.68752 46.6406 9.9219 45.8594 10.0781C41.0938 11.0156 36.4844 13.75 33.4375 17.3438C32.2656 18.75 30.3125 22.6563 28.5937 21.4063C26.7969 19.9219 27.6562 16.4063 30.9375 12.4219Z" fill="white"/>
</svg>
