<svg width="70" height="70" viewBox="0 0 70 70" fill="none" xmlns="http://www.w3.org/2000/svg">
<path d="M28.5223 9.777C30.1665 8.01785 30.9884 7.13827 31.8666 6.64827C33.8144 5.56166 36.1856 5.56166 38.1334 6.64827C39.0116 7.13827 39.8335 8.01785 41.4776 9.777C43.4572 11.895 45.4516 12.6789 48.2548 12.5842C50.6613 12.5029 51.8647 12.4622 52.8322 12.7367C54.9777 13.3455 56.6545 15.0224 57.2632 17.1678C57.5377 18.1354 57.4971 19.3386 57.4157 21.7451C57.3177 24.6424 58.1738 26.607 60.223 28.5223C61.9821 30.1665 62.8617 30.9884 63.3517 31.8666C64.4382 33.8144 64.4382 36.1856 63.3517 38.1334C62.8617 39.0116 61.9821 39.8335 60.223 41.4776C58.1049 43.4572 57.3209 45.4516 57.4157 48.2548C57.4971 50.6613 57.5377 51.8647 57.2632 52.8322C56.6545 54.9777 54.9777 56.6545 52.8322 57.2632C51.8647 57.5377 50.6613 57.4971 48.2548 57.4157C45.4516 57.3209 43.4572 58.1049 41.4776 60.223C39.8335 61.9821 39.0116 62.8617 38.1334 63.3517C36.1856 64.4382 33.8144 64.4382 31.8666 63.3517C30.9884 62.8617 30.1665 61.9821 28.5223 60.223C26.607 58.1738 24.6424 57.3177 21.7451 57.4157C19.3386 57.4971 18.1354 57.5377 17.1678 57.2632C15.0224 56.6545 13.3455 54.9777 12.7367 52.8322C12.4622 51.8647 12.5029 50.6613 12.5842 48.2548C12.6789 45.4516 11.895 43.4572 9.777 41.4776C8.01785 39.8335 7.13827 39.0116 6.64827 38.1334C5.56166 36.1856 5.56166 33.8144 6.64827 31.8666C7.13827 30.9884 8.01785 30.1665 9.777 28.5223C11.895 26.5428 12.6789 24.5483 12.5842 21.7451C12.5029 19.3386 12.4622 18.1354 12.7367 17.1678C13.3455 15.0224 15.0224 13.3455 17.1678 12.7367C21.3744 11.5431 25.022 13.5221 28.5223 9.777Z" fill="white" stroke="white" stroke-width="2"/>
</svg>
