<svg width="70" height="70" viewBox="0 0 70 70" fill="none" xmlns="http://www.w3.org/2000/svg">
<path d="M40.0388 10.0455L45.1716 20.3959C45.8716 21.8367 47.738 23.2187 49.313 23.4833L58.616 25.0417C64.5654 26.0415 65.9654 30.3934 61.6782 34.6864L54.4457 41.9787C53.2207 43.2136 52.5502 45.5953 52.9291 47.301L54.9999 56.3281C56.6329 63.4734 52.8707 66.2375 46.6008 62.503L37.8808 57.2985C36.3061 56.3576 33.7106 56.3576 32.1064 57.2985L23.3866 62.503C17.1456 66.2375 13.3544 63.4439 14.9876 56.3281L17.0582 47.301C17.4373 45.5953 16.7665 43.2136 15.5416 41.9787L8.30912 34.6864C4.05126 30.3934 5.42195 26.0415 11.3713 25.0417L20.6744 23.4833C22.2201 23.2187 24.0865 21.8367 24.7865 20.3959L29.9192 10.0455C32.7189 4.42925 37.2683 4.42925 40.0388 10.0455Z" fill="white" stroke="white" stroke-width="1.5" stroke-linecap="round" stroke-linejoin="round"/>
</svg>
